<svg xmlns="http://www.w3.org/2000/svg" version="1.1" width="500" height="500" viewBox="0 0 500 500"><g transform="scale(16.129)"><g transform="translate(1,1)"><g><g transform="translate(3.5,3.5)"><path fill-rule="evenodd" d="M-3.5 3.5C-3.5 -3.5 -3.5 -3.5 3.5 -3.5C3.5 3.5 3.5 3.5 -3.5 3.5M-2.5 2.5C2.5 2.5 2.5 2.5 2.5 -2.5C-2.5 -2.5 -2.5 -2.5 -2.5 2.5Z" fill="#000000"/><path fill-rule="evenodd" d="M1.5 0L0 1.5L-1.5 0L0 -1.5L1.5 0Z" fill="#000000"/></g></g><g><g transform="translate(25.5,3.5)"><g transform="rotate(90)"><path fill-rule="evenodd" d="M-3.5 3.5C-3.5 -3.5 -3.5 -3.5 3.5 -3.5C3.5 3.5 3.5 3.5 -3.5 3.5M-2.5 2.5C2.5 2.5 2.5 2.5 2.5 -2.5C-2.5 -2.5 -2.5 -2.5 -2.5 2.5Z" fill="#000000"/><path fill-rule="evenodd" d="M1.5 0L0 1.5L-1.5 0L0 -1.5L1.5 0Z" fill="#000000"/></g></g></g><g><g transform="translate(3.5,25.5)"><g transform="rotate(-90)"><path fill-rule="evenodd" d="M-3.5 3.5C-3.5 -3.5 -3.5 -3.5 3.5 -3.5C3.5 3.5 3.5 3.5 -3.5 3.5M-2.5 2.5C2.5 2.5 2.5 2.5 2.5 -2.5C-2.5 -2.5 -2.5 -2.5 -2.5 2.5Z" fill="#000000"/><path fill-rule="evenodd" d="M1.5 0L0 1.5L-1.5 0L0 -1.5L1.5 0Z" fill="#000000"/></g></g></g><path fill-rule="evenodd" d="M8.95 0.5L8.5 0.95L8.05 0.5L8.5 0.05L8.95 0.5ZM9.95 0.5L9.5 0.95L9.05 0.5L9.5 0.05L9.95 0.5ZM10.95 0.5L10.5 0.95L10.05 0.5L10.5 0.05L10.95 0.5ZM11.95 0.5L11.5 0.95L11.05 0.5L11.5 0.05L11.95 0.5ZM12.95 0.5L12.5 0.95L12.05 0.5L12.5 0.05L12.95 0.5ZM13.95 0.5L13.5 0.95L13.05 0.5L13.5 0.05L13.95 0.5ZM14.95 0.5L14.5 0.95L14.05 0.5L14.5 0.05L14.95 0.5ZM20.95 0.5L20.5 0.95L20.05 0.5L20.5 0.05L20.95 0.5ZM9.95 1.5L9.5 1.95L9.05 1.5L9.5 1.05L9.95 1.5ZM11.95 1.5L11.5 1.95L11.05 1.5L11.5 1.05L11.95 1.5ZM14.95 1.5L14.5 1.95L14.05 1.5L14.5 1.05L14.95 1.5ZM16.95 1.5L16.5 1.95L16.05 1.5L16.5 1.05L16.95 1.5ZM17.95 1.5L17.5 1.95L17.05 1.5L17.5 1.05L17.95 1.5ZM18.95 1.5L18.5 1.95L18.05 1.5L18.5 1.05L18.95 1.5ZM20.95 1.5L20.5 1.95L20.05 1.5L20.5 1.05L20.95 1.5ZM9.95 2.5L9.5 2.95L9.05 2.5L9.5 2.05L9.95 2.5ZM10.95 2.5L10.5 2.95L10.05 2.5L10.5 2.05L10.95 2.5ZM11.95 2.5L11.5 2.95L11.05 2.5L11.5 2.05L11.95 2.5ZM12.95 2.5L12.5 2.95L12.05 2.5L12.5 2.05L12.95 2.5ZM14.95 2.5L14.5 2.95L14.05 2.5L14.5 2.05L14.95 2.5ZM16.95 2.5L16.5 2.95L16.05 2.5L16.5 2.05L16.95 2.5ZM19.95 2.5L19.5 2.95L19.05 2.5L19.5 2.05L19.95 2.5ZM20.95 2.5L20.5 2.95L20.05 2.5L20.5 2.05L20.95 2.5ZM8.95 3.5L8.5 3.95L8.05 3.5L8.5 3.05L8.95 3.5ZM10.95 3.5L10.5 3.95L10.05 3.5L10.5 3.05L10.95 3.5ZM13.95 3.5L13.5 3.95L13.05 3.5L13.5 3.05L13.95 3.5ZM15.95 3.5L15.5 3.95L15.05 3.5L15.5 3.05L15.95 3.5ZM18.95 3.5L18.5 3.95L18.05 3.5L18.5 3.05L18.95 3.5ZM20.95 3.5L20.5 3.95L20.05 3.5L20.5 3.05L20.95 3.5ZM8.95 4.5L8.5 4.95L8.05 4.5L8.5 4.05L8.95 4.5ZM10.95 4.5L10.5 4.95L10.05 4.5L10.5 4.05L10.95 4.5ZM13.95 4.5L13.5 4.95L13.05 4.5L13.5 4.05L13.95 4.5ZM14.95 4.5L14.5 4.95L14.05 4.5L14.5 4.05L14.95 4.5ZM15.95 4.5L15.5 4.95L15.05 4.5L15.5 4.05L15.95 4.5ZM16.95 4.5L16.5 4.95L16.05 4.5L16.5 4.05L16.95 4.5ZM20.95 4.5L20.5 4.95L20.05 4.5L20.5 4.05L20.95 4.5ZM8.95 5.5L8.5 5.95L8.05 5.5L8.5 5.05L8.95 5.5ZM9.95 5.5L9.5 5.95L9.05 5.5L9.5 5.05L9.95 5.5ZM11.95 5.5L11.5 5.95L11.05 5.5L11.5 5.05L11.95 5.5ZM12.95 5.5L12.5 5.95L12.05 5.5L12.5 5.05L12.95 5.5ZM16.95 5.5L16.5 5.95L16.05 5.5L16.5 5.05L16.95 5.5ZM17.95 5.5L17.5 5.95L17.05 5.5L17.5 5.05L17.95 5.5ZM19.95 5.5L19.5 5.95L19.05 5.5L19.5 5.05L19.95 5.5ZM20.95 5.5L20.5 5.95L20.05 5.5L20.5 5.05L20.95 5.5ZM8.95 6.5L8.5 6.95L8.05 6.5L8.5 6.05L8.95 6.5ZM10.95 6.5L10.5 6.95L10.05 6.5L10.5 6.05L10.95 6.5ZM12.95 6.5L12.5 6.95L12.05 6.5L12.5 6.05L12.95 6.5ZM14.95 6.5L14.5 6.95L14.05 6.5L14.5 6.05L14.95 6.5ZM16.95 6.5L16.5 6.95L16.05 6.5L16.5 6.05L16.95 6.5ZM18.95 6.5L18.5 6.95L18.05 6.5L18.5 6.05L18.95 6.5ZM20.95 6.5L20.5 6.95L20.05 6.5L20.5 6.05L20.95 6.5ZM8.95 7.5L8.5 7.95L8.05 7.5L8.5 7.05L8.95 7.5ZM9.95 7.5L9.5 7.95L9.05 7.5L9.5 7.05L9.95 7.5ZM10.95 7.5L10.5 7.95L10.05 7.5L10.5 7.05L10.95 7.5ZM11.95 7.5L11.5 7.95L11.05 7.5L11.5 7.05L11.95 7.5ZM16.95 7.5L16.5 7.95L16.05 7.5L16.5 7.05L16.95 7.5ZM19.95 7.5L19.5 7.95L19.05 7.5L19.5 7.05L19.95 7.5ZM20.95 7.5L20.5 7.95L20.05 7.5L20.5 7.05L20.95 7.5ZM0.95 8.5L0.5 8.95L0.05 8.5L0.5 8.05L0.95 8.5ZM4.95 8.5L4.5 8.95L4.05 8.5L4.5 8.05L4.95 8.5ZM6.95 8.5L6.5 8.95L6.05 8.5L6.5 8.05L6.95 8.5ZM7.95 8.5L7.5 8.95L7.05 8.5L7.5 8.05L7.95 8.5ZM8.95 8.5L8.5 8.95L8.05 8.5L8.5 8.05L8.95 8.5ZM10.95 8.5L10.5 8.95L10.05 8.5L10.5 8.05L10.95 8.5ZM12.95 8.5L12.5 8.95L12.05 8.5L12.5 8.05L12.95 8.5ZM14.95 8.5L14.5 8.95L14.05 8.5L14.5 8.05L14.95 8.5ZM16.95 8.5L16.5 8.95L16.05 8.5L16.5 8.05L16.95 8.5ZM18.95 8.5L18.5 8.95L18.05 8.5L18.5 8.05L18.95 8.5ZM19.95 8.5L19.5 8.95L19.05 8.5L19.5 8.05L19.95 8.5ZM21.95 8.5L21.5 8.95L21.05 8.5L21.5 8.05L21.95 8.5ZM22.95 8.5L22.5 8.95L22.05 8.5L22.5 8.05L22.95 8.5ZM23.95 8.5L23.5 8.95L23.05 8.5L23.5 8.05L23.95 8.5ZM24.95 8.5L24.5 8.95L24.05 8.5L24.5 8.05L24.95 8.5ZM25.95 8.5L25.5 8.95L25.05 8.5L25.5 8.05L25.95 8.5ZM28.95 8.5L28.5 8.95L28.05 8.5L28.5 8.05L28.95 8.5ZM1.95 9.5L1.5 9.95L1.05 9.5L1.5 9.05L1.95 9.5ZM2.95 9.5L2.5 9.95L2.05 9.5L2.5 9.05L2.95 9.5ZM3.95 9.5L3.5 9.95L3.05 9.5L3.5 9.05L3.95 9.5ZM5.95 9.5L5.5 9.95L5.05 9.5L5.5 9.05L5.95 9.5ZM7.95 9.5L7.5 9.95L7.05 9.5L7.5 9.05L7.95 9.5ZM8.95 9.5L8.5 9.95L8.05 9.5L8.5 9.05L8.95 9.5ZM9.95 9.5L9.5 9.95L9.05 9.5L9.5 9.05L9.95 9.5ZM13.95 9.5L13.5 9.95L13.05 9.5L13.5 9.05L13.95 9.5ZM19.95 9.5L19.5 9.95L19.05 9.5L19.5 9.05L19.95 9.5ZM20.95 9.5L20.5 9.95L20.05 9.5L20.5 9.05L20.95 9.5ZM21.95 9.5L21.5 9.95L21.05 9.5L21.5 9.05L21.95 9.5ZM23.95 9.5L23.5 9.95L23.05 9.5L23.5 9.05L23.95 9.5ZM26.95 9.5L26.5 9.95L26.05 9.5L26.5 9.05L26.95 9.5ZM2.95 10.5L2.5 10.95L2.05 10.5L2.5 10.05L2.95 10.5ZM4.95 10.5L4.5 10.95L4.05 10.5L4.5 10.05L4.95 10.5ZM6.95 10.5L6.5 10.95L6.05 10.5L6.5 10.05L6.95 10.5ZM7.95 10.5L7.5 10.95L7.05 10.5L7.5 10.05L7.95 10.5ZM8.95 10.5L8.5 10.95L8.05 10.5L8.5 10.05L8.95 10.5ZM9.95 10.5L9.5 10.95L9.05 10.5L9.5 10.05L9.95 10.5ZM19.95 10.5L19.5 10.95L19.05 10.5L19.5 10.05L19.95 10.5ZM22.95 10.5L22.5 10.95L22.05 10.5L22.5 10.05L22.95 10.5ZM23.95 10.5L23.5 10.95L23.05 10.5L23.5 10.05L23.95 10.5ZM24.95 10.5L24.5 10.95L24.05 10.5L24.5 10.05L24.95 10.5ZM25.95 10.5L25.5 10.95L25.05 10.5L25.5 10.05L25.95 10.5ZM26.95 10.5L26.5 10.95L26.05 10.5L26.5 10.05L26.95 10.5ZM28.95 10.5L28.5 10.95L28.05 10.5L28.5 10.05L28.95 10.5ZM1.95 11.5L1.5 11.95L1.05 11.5L1.5 11.05L1.95 11.5ZM4.95 11.5L4.5 11.95L4.05 11.5L4.5 11.05L4.95 11.5ZM8.95 11.5L8.5 11.95L8.05 11.5L8.5 11.05L8.95 11.5ZM10.95 11.5L10.5 11.95L10.05 11.5L10.5 11.05L10.95 11.5ZM11.95 11.5L11.5 11.95L11.05 11.5L11.5 11.05L11.95 11.5ZM12.95 11.5L12.5 11.95L12.05 11.5L12.5 11.05L12.95 11.5ZM16.95 11.5L16.5 11.95L16.05 11.5L16.5 11.05L16.95 11.5ZM19.95 11.5L19.5 11.95L19.05 11.5L19.5 11.05L19.95 11.5ZM20.95 11.5L20.5 11.95L20.05 11.5L20.5 11.05L20.95 11.5ZM21.95 11.5L21.5 11.95L21.05 11.5L21.5 11.05L21.95 11.5ZM23.95 11.5L23.5 11.95L23.05 11.5L23.5 11.05L23.95 11.5ZM25.95 11.5L25.5 11.95L25.05 11.5L25.5 11.05L25.95 11.5ZM0.95 12.5L0.5 12.95L0.05 12.5L0.5 12.05L0.95 12.5ZM2.95 12.5L2.5 12.95L2.05 12.5L2.5 12.05L2.95 12.5ZM5.95 12.5L5.5 12.95L5.05 12.5L5.5 12.05L5.95 12.5ZM6.95 12.5L6.5 12.95L6.05 12.5L6.5 12.05L6.95 12.5ZM11.95 12.5L11.5 12.95L11.05 12.5L11.5 12.05L11.95 12.5ZM13.95 12.5L13.5 12.95L13.05 12.5L13.5 12.05L13.95 12.5ZM14.95 12.5L14.5 12.95L14.05 12.5L14.5 12.05L14.95 12.5ZM17.95 12.5L17.5 12.95L17.05 12.5L17.5 12.05L17.95 12.5ZM19.95 12.5L19.5 12.95L19.05 12.5L19.5 12.05L19.95 12.5ZM20.95 12.5L20.5 12.95L20.05 12.5L20.5 12.05L20.95 12.5ZM25.95 12.5L25.5 12.95L25.05 12.5L25.5 12.05L25.95 12.5ZM26.95 12.5L26.5 12.95L26.05 12.5L26.5 12.05L26.95 12.5ZM27.95 12.5L27.5 12.95L27.05 12.5L27.5 12.05L27.95 12.5ZM0.95 13.5L0.5 13.95L0.05 13.5L0.5 13.05L0.95 13.5ZM1.95 13.5L1.5 13.95L1.05 13.5L1.5 13.05L1.95 13.5ZM5.95 13.5L5.5 13.95L5.05 13.5L5.5 13.05L5.95 13.5ZM8.95 13.5L8.5 13.95L8.05 13.5L8.5 13.05L8.95 13.5ZM9.95 13.5L9.5 13.95L9.05 13.5L9.5 13.05L9.95 13.5ZM10.95 13.5L10.5 13.95L10.05 13.5L10.5 13.05L10.95 13.5ZM14.95 13.5L14.5 13.95L14.05 13.5L14.5 13.05L14.95 13.5ZM16.95 13.5L16.5 13.95L16.05 13.5L16.5 13.05L16.95 13.5ZM19.95 13.5L19.5 13.95L19.05 13.5L19.5 13.05L19.95 13.5ZM21.95 13.5L21.5 13.95L21.05 13.5L21.5 13.05L21.95 13.5ZM22.95 13.5L22.5 13.95L22.05 13.5L22.5 13.05L22.95 13.5ZM24.95 13.5L24.5 13.95L24.05 13.5L24.5 13.05L24.95 13.5ZM26.95 13.5L26.5 13.95L26.05 13.5L26.5 13.05L26.95 13.5ZM0.95 14.5L0.5 14.95L0.05 14.5L0.5 14.05L0.95 14.5ZM2.95 14.5L2.5 14.95L2.05 14.5L2.5 14.05L2.95 14.5ZM3.95 14.5L3.5 14.95L3.05 14.5L3.5 14.05L3.95 14.5ZM4.95 14.5L4.5 14.95L4.05 14.5L4.5 14.05L4.95 14.5ZM5.95 14.5L5.5 14.95L5.05 14.5L5.5 14.05L5.95 14.5ZM6.95 14.5L6.5 14.95L6.05 14.5L6.5 14.05L6.95 14.5ZM9.95 14.5L9.5 14.95L9.05 14.5L9.5 14.05L9.95 14.5ZM11.95 14.5L11.5 14.95L11.05 14.5L11.5 14.05L11.95 14.5ZM13.95 14.5L13.5 14.95L13.05 14.5L13.5 14.05L13.95 14.5ZM14.95 14.5L14.5 14.95L14.05 14.5L14.5 14.05L14.95 14.5ZM15.95 14.5L15.5 14.95L15.05 14.5L15.5 14.05L15.95 14.5ZM19.95 14.5L19.5 14.95L19.05 14.5L19.5 14.05L19.95 14.5ZM22.95 14.5L22.5 14.95L22.05 14.5L22.5 14.05L22.95 14.5ZM24.95 14.5L24.5 14.95L24.05 14.5L24.5 14.05L24.95 14.5ZM25.95 14.5L25.5 14.95L25.05 14.5L25.5 14.05L25.95 14.5ZM26.95 14.5L26.5 14.95L26.05 14.5L26.5 14.05L26.95 14.5ZM27.95 14.5L27.5 14.95L27.05 14.5L27.5 14.05L27.95 14.5ZM2.95 15.5L2.5 15.95L2.05 15.5L2.5 15.05L2.95 15.5ZM3.95 15.5L3.5 15.95L3.05 15.5L3.5 15.05L3.95 15.5ZM4.95 15.5L4.5 15.95L4.05 15.5L4.5 15.05L4.95 15.5ZM9.95 15.5L9.5 15.95L9.05 15.5L9.5 15.05L9.95 15.5ZM10.95 15.5L10.5 15.95L10.05 15.5L10.5 15.05L10.95 15.5ZM11.95 15.5L11.5 15.95L11.05 15.5L11.5 15.05L11.95 15.5ZM13.95 15.5L13.5 15.95L13.05 15.5L13.5 15.05L13.95 15.5ZM16.95 15.5L16.5 15.95L16.05 15.5L16.5 15.05L16.95 15.5ZM17.95 15.5L17.5 15.95L17.05 15.5L17.5 15.05L17.95 15.5ZM18.95 15.5L18.5 15.95L18.05 15.5L18.5 15.05L18.95 15.5ZM19.95 15.5L19.5 15.95L19.05 15.5L19.5 15.05L19.95 15.5ZM20.95 15.5L20.5 15.95L20.05 15.5L20.5 15.05L20.95 15.5ZM21.95 15.5L21.5 15.95L21.05 15.5L21.5 15.05L21.95 15.5ZM27.95 15.5L27.5 15.95L27.05 15.5L27.5 15.05L27.95 15.5ZM0.95 16.5L0.5 16.95L0.05 16.5L0.5 16.05L0.95 16.5ZM1.95 16.5L1.5 16.95L1.05 16.5L1.5 16.05L1.95 16.5ZM4.95 16.5L4.5 16.95L4.05 16.5L4.5 16.05L4.95 16.5ZM5.95 16.5L5.5 16.95L5.05 16.5L5.5 16.05L5.95 16.5ZM6.95 16.5L6.5 16.95L6.05 16.5L6.5 16.05L6.95 16.5ZM8.95 16.5L8.5 16.95L8.05 16.5L8.5 16.05L8.95 16.5ZM10.95 16.5L10.5 16.95L10.05 16.5L10.5 16.05L10.95 16.5ZM12.95 16.5L12.5 16.95L12.05 16.5L12.5 16.05L12.95 16.5ZM13.95 16.5L13.5 16.95L13.05 16.5L13.5 16.05L13.95 16.5ZM17.95 16.5L17.5 16.95L17.05 16.5L17.5 16.05L17.95 16.5ZM19.95 16.5L19.5 16.95L19.05 16.5L19.5 16.05L19.95 16.5ZM21.95 16.5L21.5 16.95L21.05 16.5L21.5 16.05L21.95 16.5ZM22.95 16.5L22.5 16.95L22.05 16.5L22.5 16.05L22.95 16.5ZM23.95 16.5L23.5 16.95L23.05 16.5L23.5 16.05L23.95 16.5ZM24.95 16.5L24.5 16.95L24.05 16.5L24.5 16.05L24.95 16.5ZM25.95 16.5L25.5 16.95L25.05 16.5L25.5 16.05L25.95 16.5ZM26.95 16.5L26.5 16.95L26.05 16.5L26.5 16.05L26.95 16.5ZM27.95 16.5L27.5 16.95L27.05 16.5L27.5 16.05L27.95 16.5ZM0.95 17.5L0.5 17.95L0.05 17.5L0.5 17.05L0.95 17.5ZM4.95 17.5L4.5 17.95L4.05 17.5L4.5 17.05L4.95 17.5ZM7.95 17.5L7.5 17.95L7.05 17.5L7.5 17.05L7.95 17.5ZM9.95 17.5L9.5 17.95L9.05 17.5L9.5 17.05L9.95 17.5ZM10.95 17.5L10.5 17.95L10.05 17.5L10.5 17.05L10.95 17.5ZM11.95 17.5L11.5 17.95L11.05 17.5L11.5 17.05L11.95 17.5ZM12.95 17.5L12.5 17.95L12.05 17.5L12.5 17.05L12.95 17.5ZM13.95 17.5L13.5 17.95L13.05 17.5L13.5 17.05L13.95 17.5ZM14.95 17.5L14.5 17.95L14.05 17.5L14.5 17.05L14.95 17.5ZM16.95 17.5L16.5 17.95L16.05 17.5L16.5 17.05L16.95 17.5ZM18.95 17.5L18.5 17.95L18.05 17.5L18.5 17.05L18.95 17.5ZM20.95 17.5L20.5 17.95L20.05 17.5L20.5 17.05L20.95 17.5ZM21.95 17.5L21.5 17.95L21.05 17.5L21.5 17.05L21.95 17.5ZM22.95 17.5L22.5 17.95L22.05 17.5L22.5 17.05L22.95 17.5ZM24.95 17.5L24.5 17.95L24.05 17.5L24.5 17.05L24.95 17.5ZM26.95 17.5L26.5 17.95L26.05 17.5L26.5 17.05L26.95 17.5ZM27.95 17.5L27.5 17.95L27.05 17.5L27.5 17.05L27.95 17.5ZM2.95 18.5L2.5 18.95L2.05 18.5L2.5 18.05L2.95 18.5ZM4.95 18.5L4.5 18.95L4.05 18.5L4.5 18.05L4.95 18.5ZM6.95 18.5L6.5 18.95L6.05 18.5L6.5 18.05L6.95 18.5ZM7.95 18.5L7.5 18.95L7.05 18.5L7.5 18.05L7.95 18.5ZM9.95 18.5L9.5 18.95L9.05 18.5L9.5 18.05L9.95 18.5ZM10.95 18.5L10.5 18.95L10.05 18.5L10.5 18.05L10.95 18.5ZM11.95 18.5L11.5 18.95L11.05 18.5L11.5 18.05L11.95 18.5ZM12.95 18.5L12.5 18.95L12.05 18.5L12.5 18.05L12.95 18.5ZM15.95 18.5L15.5 18.95L15.05 18.5L15.5 18.05L15.95 18.5ZM22.95 18.5L22.5 18.95L22.05 18.5L22.5 18.05L22.95 18.5ZM24.95 18.5L24.5 18.95L24.05 18.5L24.5 18.05L24.95 18.5ZM25.95 18.5L25.5 18.95L25.05 18.5L25.5 18.05L25.95 18.5ZM26.95 18.5L26.5 18.95L26.05 18.5L26.5 18.05L26.95 18.5ZM28.95 18.5L28.5 18.95L28.05 18.5L28.5 18.05L28.95 18.5ZM4.95 19.5L4.5 19.95L4.05 19.5L4.5 19.05L4.95 19.5ZM7.95 19.5L7.5 19.95L7.05 19.5L7.5 19.05L7.95 19.5ZM9.95 19.5L9.5 19.95L9.05 19.5L9.5 19.05L9.95 19.5ZM11.95 19.5L11.5 19.95L11.05 19.5L11.5 19.05L11.95 19.5ZM14.95 19.5L14.5 19.95L14.05 19.5L14.5 19.05L14.95 19.5ZM16.95 19.5L16.5 19.95L16.05 19.5L16.5 19.05L16.95 19.5ZM17.95 19.5L17.5 19.95L17.05 19.5L17.5 19.05L17.95 19.5ZM18.95 19.5L18.5 19.95L18.05 19.5L18.5 19.05L18.95 19.5ZM19.95 19.5L19.5 19.95L19.05 19.5L19.5 19.05L19.95 19.5ZM20.95 19.5L20.5 19.95L20.05 19.5L20.5 19.05L20.95 19.5ZM21.95 19.5L21.5 19.95L21.05 19.5L21.5 19.05L21.95 19.5ZM27.95 19.5L27.5 19.95L27.05 19.5L27.5 19.05L27.95 19.5ZM0.95 20.5L0.5 20.95L0.05 20.5L0.5 20.05L0.95 20.5ZM1.95 20.5L1.5 20.95L1.05 20.5L1.5 20.05L1.95 20.5ZM5.95 20.5L5.5 20.95L5.05 20.5L5.5 20.05L5.95 20.5ZM6.95 20.5L6.5 20.95L6.05 20.5L6.5 20.05L6.95 20.5ZM7.95 20.5L7.5 20.95L7.05 20.5L7.5 20.05L7.95 20.5ZM10.95 20.5L10.5 20.95L10.05 20.5L10.5 20.05L10.95 20.5ZM12.95 20.5L12.5 20.95L12.05 20.5L12.5 20.05L12.95 20.5ZM13.95 20.5L13.5 20.95L13.05 20.5L13.5 20.05L13.95 20.5ZM14.95 20.5L14.5 20.95L14.05 20.5L14.5 20.05L14.95 20.5ZM17.95 20.5L17.5 20.95L17.05 20.5L17.5 20.05L17.95 20.5ZM19.95 20.5L19.5 20.95L19.05 20.5L19.5 20.05L19.95 20.5ZM20.95 20.5L20.5 20.95L20.05 20.5L20.5 20.05L20.95 20.5ZM21.95 20.5L21.5 20.95L21.05 20.5L21.5 20.05L21.95 20.5ZM22.95 20.5L22.5 20.95L22.05 20.5L22.5 20.05L22.95 20.5ZM23.95 20.5L23.5 20.95L23.05 20.5L23.5 20.05L23.95 20.5ZM24.95 20.5L24.5 20.95L24.05 20.5L24.5 20.05L24.95 20.5ZM8.95 21.5L8.5 21.95L8.05 21.5L8.5 21.05L8.95 21.5ZM9.95 21.5L9.5 21.95L9.05 21.5L9.5 21.05L9.95 21.5ZM10.95 21.5L10.5 21.95L10.05 21.5L10.5 21.05L10.95 21.5ZM11.95 21.5L11.5 21.95L11.05 21.5L11.5 21.05L11.95 21.5ZM15.95 21.5L15.5 21.95L15.05 21.5L15.5 21.05L15.95 21.5ZM16.95 21.5L16.5 21.95L16.05 21.5L16.5 21.05L16.95 21.5ZM19.95 21.5L19.5 21.95L19.05 21.5L19.5 21.05L19.95 21.5ZM20.95 21.5L20.5 21.95L20.05 21.5L20.5 21.05L20.95 21.5ZM24.95 21.5L24.5 21.95L24.05 21.5L24.5 21.05L24.95 21.5ZM25.95 21.5L25.5 21.95L25.05 21.5L25.5 21.05L25.95 21.5ZM26.95 21.5L26.5 21.95L26.05 21.5L26.5 21.05L26.95 21.5ZM8.95 22.5L8.5 22.95L8.05 22.5L8.5 22.05L8.95 22.5ZM11.95 22.5L11.5 22.95L11.05 22.5L11.5 22.05L11.95 22.5ZM13.95 22.5L13.5 22.95L13.05 22.5L13.5 22.05L13.95 22.5ZM14.95 22.5L14.5 22.95L14.05 22.5L14.5 22.05L14.95 22.5ZM15.95 22.5L15.5 22.95L15.05 22.5L15.5 22.05L15.95 22.5ZM18.95 22.5L18.5 22.95L18.05 22.5L18.5 22.05L18.95 22.5ZM19.95 22.5L19.5 22.95L19.05 22.5L19.5 22.05L19.95 22.5ZM20.95 22.5L20.5 22.95L20.05 22.5L20.5 22.05L20.95 22.5ZM22.95 22.5L22.5 22.95L22.05 22.5L22.5 22.05L22.95 22.5ZM24.95 22.5L24.5 22.95L24.05 22.5L24.5 22.05L24.95 22.5ZM25.95 22.5L25.5 22.95L25.05 22.5L25.5 22.05L25.95 22.5ZM26.95 22.5L26.5 22.95L26.05 22.5L26.5 22.05L26.95 22.5ZM28.95 22.5L28.5 22.95L28.05 22.5L28.5 22.05L28.95 22.5ZM13.95 23.5L13.5 23.95L13.05 23.5L13.5 23.05L13.95 23.5ZM16.95 23.5L16.5 23.95L16.05 23.5L16.5 23.05L16.95 23.5ZM17.95 23.5L17.5 23.95L17.05 23.5L17.5 23.05L17.95 23.5ZM19.95 23.5L19.5 23.95L19.05 23.5L19.5 23.05L19.95 23.5ZM20.95 23.5L20.5 23.95L20.05 23.5L20.5 23.05L20.95 23.5ZM24.95 23.5L24.5 23.95L24.05 23.5L24.5 23.05L24.95 23.5ZM26.95 23.5L26.5 23.95L26.05 23.5L26.5 23.05L26.95 23.5ZM27.95 23.5L27.5 23.95L27.05 23.5L27.5 23.05L27.95 23.5ZM8.95 24.5L8.5 24.95L8.05 24.5L8.5 24.05L8.95 24.5ZM9.95 24.5L9.5 24.95L9.05 24.5L9.5 24.05L9.95 24.5ZM10.95 24.5L10.5 24.95L10.05 24.5L10.5 24.05L10.95 24.5ZM12.95 24.5L12.5 24.95L12.05 24.5L12.5 24.05L12.95 24.5ZM13.95 24.5L13.5 24.95L13.05 24.5L13.5 24.05L13.95 24.5ZM16.95 24.5L16.5 24.95L16.05 24.5L16.5 24.05L16.95 24.5ZM20.95 24.5L20.5 24.95L20.05 24.5L20.5 24.05L20.95 24.5ZM21.95 24.5L21.5 24.95L21.05 24.5L21.5 24.05L21.95 24.5ZM22.95 24.5L22.5 24.95L22.05 24.5L22.5 24.05L22.95 24.5ZM23.95 24.5L23.5 24.95L23.05 24.5L23.5 24.05L23.95 24.5ZM24.95 24.5L24.5 24.95L24.05 24.5L24.5 24.05L24.95 24.5ZM25.95 24.5L25.5 24.95L25.05 24.5L25.5 24.05L25.95 24.5ZM28.95 24.5L28.5 24.95L28.05 24.5L28.5 24.05L28.95 24.5ZM9.95 25.5L9.5 25.95L9.05 25.5L9.5 25.05L9.95 25.5ZM13.95 25.5L13.5 25.95L13.05 25.5L13.5 25.05L13.95 25.5ZM14.95 25.5L14.5 25.95L14.05 25.5L14.5 25.05L14.95 25.5ZM15.95 25.5L15.5 25.95L15.05 25.5L15.5 25.05L15.95 25.5ZM16.95 25.5L16.5 25.95L16.05 25.5L16.5 25.05L16.95 25.5ZM18.95 25.5L18.5 25.95L18.05 25.5L18.5 25.05L18.95 25.5ZM19.95 25.5L19.5 25.95L19.05 25.5L19.5 25.05L19.95 25.5ZM21.95 25.5L21.5 25.95L21.05 25.5L21.5 25.05L21.95 25.5ZM23.95 25.5L23.5 25.95L23.05 25.5L23.5 25.05L23.95 25.5ZM25.95 25.5L25.5 25.95L25.05 25.5L25.5 25.05L25.95 25.5ZM26.95 25.5L26.5 25.95L26.05 25.5L26.5 25.05L26.95 25.5ZM27.95 25.5L27.5 25.95L27.05 25.5L27.5 25.05L27.95 25.5ZM9.95 26.5L9.5 26.95L9.05 26.5L9.5 26.05L9.95 26.5ZM12.95 26.5L12.5 26.95L12.05 26.5L12.5 26.05L12.95 26.5ZM13.95 26.5L13.5 26.95L13.05 26.5L13.5 26.05L13.95 26.5ZM15.95 26.5L15.5 26.95L15.05 26.5L15.5 26.05L15.95 26.5ZM18.95 26.5L18.5 26.95L18.05 26.5L18.5 26.05L18.95 26.5ZM21.95 26.5L21.5 26.95L21.05 26.5L21.5 26.05L21.95 26.5ZM22.95 26.5L22.5 26.95L22.05 26.5L22.5 26.05L22.95 26.5ZM24.95 26.5L24.5 26.95L24.05 26.5L24.5 26.05L24.95 26.5ZM26.95 26.5L26.5 26.95L26.05 26.5L26.5 26.05L26.95 26.5ZM27.95 26.5L27.5 26.95L27.05 26.5L27.5 26.05L27.95 26.5ZM28.95 26.5L28.5 26.95L28.05 26.5L28.5 26.05L28.95 26.5ZM9.95 27.5L9.5 27.95L9.05 27.5L9.5 27.05L9.95 27.5ZM11.95 27.5L11.5 27.95L11.05 27.5L11.5 27.05L11.95 27.5ZM13.95 27.5L13.5 27.95L13.05 27.5L13.5 27.05L13.95 27.5ZM16.95 27.5L16.5 27.95L16.05 27.5L16.5 27.05L16.95 27.5ZM17.95 27.5L17.5 27.95L17.05 27.5L17.5 27.05L17.95 27.5ZM19.95 27.5L19.5 27.95L19.05 27.5L19.5 27.05L19.95 27.5ZM22.95 27.5L22.5 27.95L22.05 27.5L22.5 27.05L22.95 27.5ZM23.95 27.5L23.5 27.95L23.05 27.5L23.5 27.05L23.95 27.5ZM24.95 27.5L24.5 27.95L24.05 27.5L24.5 27.05L24.95 27.5ZM25.95 27.5L25.5 27.95L25.05 27.5L25.5 27.05L25.95 27.5ZM26.95 27.5L26.5 27.95L26.05 27.5L26.5 27.05L26.95 27.5ZM8.95 28.5L8.5 28.95L8.05 28.5L8.5 28.05L8.95 28.5ZM9.95 28.5L9.5 28.95L9.05 28.5L9.5 28.05L9.95 28.5ZM11.95 28.5L11.5 28.95L11.05 28.5L11.5 28.05L11.95 28.5ZM12.95 28.5L12.5 28.95L12.05 28.5L12.5 28.05L12.95 28.5ZM13.95 28.5L13.5 28.95L13.05 28.5L13.5 28.05L13.95 28.5ZM14.95 28.5L14.5 28.95L14.05 28.5L14.5 28.05L14.95 28.5ZM20.95 28.5L20.5 28.95L20.05 28.5L20.5 28.05L20.95 28.5ZM22.95 28.5L22.5 28.95L22.05 28.5L22.5 28.05L22.95 28.5ZM24.95 28.5L24.5 28.95L24.05 28.5L24.5 28.05L24.95 28.5ZM27.95 28.5L27.5 28.95L27.05 28.5L27.5 28.05L27.95 28.5Z" fill="#000000"/></g></g></svg>